<?xml version="1.0" encoding="UTF-8" standalone="no"?>
<!-- Created with Inkscape (http://www.inkscape.org/) -->

<svg
   width="256"
   height="256"
   viewBox="0 0 67.733332 67.733333"
   version="1.1"
   id="svg2511"
   inkscape:version="1.2.2 (b0a8486541, 2022-12-01)"
   xml:space="preserve"
   sodipodi:docname="videoChatThumb.svg"
   xmlns:inkscape="http://www.inkscape.org/namespaces/inkscape"
   xmlns:sodipodi="http://sodipodi.sourceforge.net/DTD/sodipodi-0.dtd"
   xmlns="http://www.w3.org/2000/svg"
   xmlns:svg="http://www.w3.org/2000/svg"><sodipodi:namedview
     id="namedview2513"
     pagecolor="#354b5f"
     bordercolor="#000000"
     borderopacity="0.25"
     inkscape:showpageshadow="2"
     inkscape:pageopacity="1"
     inkscape:pagecheckerboard="0"
     inkscape:deskcolor="#d1d1d1"
     inkscape:document-units="px"
     showgrid="false"
     inkscape:zoom="2.7153198"
     inkscape:cx="38.117057"
     inkscape:cy="170.1457"
     inkscape:window-width="1904"
     inkscape:window-height="975"
     inkscape:window-x="35"
     inkscape:window-y="32"
     inkscape:window-maximized="0"
     inkscape:current-layer="layer1" /><defs
     id="defs2508" /><g
     inkscape:label="Layer 1"
     inkscape:groupmode="layer"
     id="layer1"><circle
       style="fill:#354b5f;fill-opacity:1;stroke:none;stroke-width:2.64583;stroke-linejoin:round"
       id="path4497"
       cx="33.866665"
       cy="33.866657"
       r="33.866665" /><path
       style="color:#000000;fill:#4e94e4;stroke-width:1.32292;-inkscape-stroke:none"
       d="m 17.810282,21.106722 c -2.738784,0 -4.943884,2.204583 -4.943884,4.943367 v 15.633154 c 0,2.738784 2.2051,4.943368 4.943884,4.943368 h 22.099943 c 2.738784,0 4.943884,-2.204584 4.943884,-4.943368 v -2.035534 l 5.17e-4,5.16e-4 8.02845,4.633826 a 1.3230473,1.3230473 0 0 0 1.983342,-1.144633 v -9.270235 -9.271785 a 1.3230473,1.3230473 0 0 0 -1.460376,-1.314649 1.3230473,1.3230473 0 0 0 -0.522966,0.169499 l -8.02845,4.635893 -5.17e-4,5.16e-4 v -2.036568 c 0,-2.738784 -2.2051,-4.943367 -4.943884,-4.943367 z"
       id="path1461" /><circle
       style="fill:#000000;fill-opacity:0;stroke:none;stroke-width:2.64583;stroke-linejoin:round"
       id="path3611"
       cx="-63.12355"
       cy="72.372719"
       r="33.866665" /><ellipse
       style="fill:#000000;fill-opacity:0;stroke:none;stroke-width:2.70546;stroke-linejoin:round"
       id="path4369"
       cx="33.866665"
       cy="33.866665"
       rx="33.866665"
       ry="33.866673" /></g></svg>
